<?xml version="1.0" encoding="utf-8" standalone="no"?>
<!DOCTYPE svg PUBLIC "-//W3C//DTD SVG 1.1//EN"
  "http://www.w3.org/Graphics/SVG/1.1/DTD/svg11.dtd">
<!-- Created with matplotlib (http://matplotlib.org/) -->
<svg height="226pt" version="1.1" viewBox="0 0 720 226" width="720pt" xmlns="http://www.w3.org/2000/svg" xmlns:xlink="http://www.w3.org/1999/xlink">
 <defs>
  <style type="text/css">
*{stroke-linecap:butt;stroke-linejoin:round;}
  </style>
 </defs>
 <g id="figure_1">
  <g id="patch_1">
   <path d="M 0 226.194375 
L 720.903125 226.194375 
L 720.903125 0 
L 0 0 
z
" style="fill:#ffffff;"/>
  </g>
  <g id="axes_1">
   <g id="patch_2">
    <path d="M 40.603125 188.638125 
L 237.544301 188.638125 
L 237.544301 22.318125 
L 40.603125 22.318125 
z
" style="fill:#ffffff;"/>
   </g>
   <g id="patch_3">
    <path clip-path="url(#p4720aefc18)" d="M 49.554997 188.638125 
L 58.978019 188.638125 
L 58.978019 182.439405 
L 49.554997 182.439405 
z
" style="fill:#1f77b4;"/>
   </g>
   <g id="patch_4">
    <path clip-path="url(#p4720aefc18)" d="M 96.670111 188.638125 
L 106.093133 188.638125 
L 106.093133 173.220525 
L 96.670111 173.220525 
z
" style="fill:#1f77b4;"/>
   </g>
   <g id="patch_5">
    <path clip-path="url(#p4720aefc18)" d="M 143.785225 188.638125 
L 153.208247 188.638125 
L 153.208247 88.106925 
L 143.785225 88.106925 
z
" style="fill:#1f77b4;"/>
   </g>
   <g id="patch_6">
    <path clip-path="url(#p4720aefc18)" d="M 190.900339 188.638125 
L 200.323361 188.638125 
L 200.323361 30.238125 
L 190.900339 30.238125 
z
" style="fill:#1f77b4;"/>
   </g>
   <g id="patch_7">
    <path clip-path="url(#p4720aefc18)" d="M 58.978019 188.638125 
L 68.401042 188.638125 
L 68.401042 182.914605 
L 58.978019 182.914605 
z
" style="fill:#ff7f0e;"/>
   </g>
   <g id="patch_8">
    <path clip-path="url(#p4720aefc18)" d="M 106.093133 188.638125 
L 115.516156 188.638125 
L 115.516156 171.953325 
L 106.093133 171.953325 
z
" style="fill:#ff7f0e;"/>
   </g>
   <g id="patch_9">
    <path clip-path="url(#p4720aefc18)" d="M 153.208247 188.638125 
L 162.63127 188.638125 
L 162.63127 98.561325 
L 153.208247 98.561325 
z
" style="fill:#ff7f0e;"/>
   </g>
   <g id="patch_10">
    <path clip-path="url(#p4720aefc18)" d="M 200.323361 188.638125 
L 209.746384 188.638125 
L 209.746384 62.974125 
L 200.323361 62.974125 
z
" style="fill:#ff7f0e;"/>
   </g>
   <g id="patch_11">
    <path clip-path="url(#p4720aefc18)" d="M 68.401042 188.638125 
L 77.824065 188.638125 
L 77.824065 183.252525 
L 68.401042 183.252525 
z
" style="fill:#2ca02c;"/>
   </g>
   <g id="patch_12">
    <path clip-path="url(#p4720aefc18)" d="M 115.516156 188.638125 
L 124.939179 188.638125 
L 124.939179 174.698925 
L 115.516156 174.698925 
z
" style="fill:#2ca02c;"/>
   </g>
   <g id="patch_13">
    <path clip-path="url(#p4720aefc18)" d="M 162.63127 188.638125 
L 172.054293 188.638125 
L 172.054293 106.903725 
L 162.63127 106.903725 
z
" style="fill:#2ca02c;"/>
   </g>
   <g id="patch_14">
    <path clip-path="url(#p4720aefc18)" d="M 209.746384 188.638125 
L 219.169407 188.638125 
L 219.169407 79.870125 
L 209.746384 79.870125 
z
" style="fill:#2ca02c;"/>
   </g>
   <g id="patch_15">
    <path clip-path="url(#p4720aefc18)" d="M 77.824065 188.638125 
L 87.247088 188.638125 
L 87.247088 183.886125 
L 77.824065 183.886125 
z
" style="fill:#d62728;"/>
   </g>
   <g id="patch_16">
    <path clip-path="url(#p4720aefc18)" d="M 124.939179 188.638125 
L 134.362202 188.638125 
L 134.362202 173.431725 
L 124.939179 173.431725 
z
" style="fill:#d62728;"/>
   </g>
   <g id="patch_17">
    <path clip-path="url(#p4720aefc18)" d="M 172.054293 188.638125 
L 181.477316 188.638125 
L 181.477316 105.002925 
L 172.054293 105.002925 
z
" style="fill:#d62728;"/>
   </g>
   <g id="patch_18">
    <path clip-path="url(#p4720aefc18)" d="M 219.169407 188.638125 
L 228.59243 188.638125 
L 228.59243 74.590125 
L 219.169407 74.590125 
z
" style="fill:#d62728;"/>
   </g>
   <g id="matplotlib.axis_1">
    <g id="xtick_1">
     <g id="line2d_1">
      <defs>
       <path d="M 0 0 
L 0 3.5 
" id="m3f5a8f6b1d" style="stroke:#000000;stroke-width:0.8;"/>
      </defs>
      <g>
       <use style="stroke:#000000;stroke-width:0.8;" x="68.401042" xlink:href="#m3f5a8f6b1d" y="188.638125"/>
      </g>
     </g>
     <g id="text_1">
      <!-- 0 -->
      <defs>
       <path d="M 31.78125 66.40625 
Q 24.171875 66.40625 20.328125 58.90625 
Q 16.5 51.421875 16.5 36.375 
Q 16.5 21.390625 20.328125 13.890625 
Q 24.171875 6.390625 31.78125 6.390625 
Q 39.453125 6.390625 43.28125 13.890625 
Q 47.125 21.390625 47.125 36.375 
Q 47.125 51.421875 43.28125 58.90625 
Q 39.453125 66.40625 31.78125 66.40625 
z
M 31.78125 74.21875 
Q 44.046875 74.21875 50.515625 64.515625 
Q 56.984375 54.828125 56.984375 36.375 
Q 56.984375 17.96875 50.515625 8.265625 
Q 44.046875 -1.421875 31.78125 -1.421875 
Q 19.53125 -1.421875 13.0625 8.265625 
Q 6.59375 17.96875 6.59375 36.375 
Q 6.59375 54.828125 13.0625 64.515625 
Q 19.53125 74.21875 31.78125 74.21875 
z
" id="DejaVuSans-30"/>
      </defs>
      <g transform="translate(65.219792 203.236563)scale(0.1 -0.1)">
       <use xlink:href="#DejaVuSans-30"/>
      </g>
     </g>
    </g>
    <g id="xtick_2">
     <g id="line2d_2">
      <g>
       <use style="stroke:#000000;stroke-width:0.8;" x="115.516156" xlink:href="#m3f5a8f6b1d" y="188.638125"/>
      </g>
     </g>
     <g id="text_2">
      <!-- $20 \times 20$ -->
      <defs>
       <path d="M 19.1875 8.296875 
L 53.609375 8.296875 
L 53.609375 0 
L 7.328125 0 
L 7.328125 8.296875 
Q 12.9375 14.109375 22.625 23.890625 
Q 32.328125 33.6875 34.8125 36.53125 
Q 39.546875 41.84375 41.421875 45.53125 
Q 43.3125 49.21875 43.3125 52.78125 
Q 43.3125 58.59375 39.234375 62.25 
Q 35.15625 65.921875 28.609375 65.921875 
Q 23.96875 65.921875 18.8125 64.3125 
Q 13.671875 62.703125 7.8125 59.421875 
L 7.8125 69.390625 
Q 13.765625 71.78125 18.9375 73 
Q 24.125 74.21875 28.421875 74.21875 
Q 39.75 74.21875 46.484375 68.546875 
Q 53.21875 62.890625 53.21875 53.421875 
Q 53.21875 48.921875 51.53125 44.890625 
Q 49.859375 40.875 45.40625 35.40625 
Q 44.1875 33.984375 37.640625 27.21875 
Q 31.109375 20.453125 19.1875 8.296875 
z
" id="DejaVuSans-32"/>
       <path d="M 70.125 53.71875 
L 47.796875 31.296875 
L 70.125 8.984375 
L 64.3125 3.078125 
L 41.890625 25.484375 
L 19.484375 3.078125 
L 13.71875 8.984375 
L 35.984375 31.296875 
L 13.71875 53.71875 
L 19.484375 59.625 
L 41.890625 37.203125 
L 64.3125 59.625 
z
" id="DejaVuSans-d7"/>
      </defs>
      <g transform="translate(96.616156 203.236563)scale(0.1 -0.1)">
       <use transform="translate(0 0.78125)" xlink:href="#DejaVuSans-32"/>
       <use transform="translate(63.623047 0.78125)" xlink:href="#DejaVuSans-30"/>
       <use transform="translate(146.728516 0.78125)" xlink:href="#DejaVuSans-d7"/>
       <use transform="translate(250 0.78125)" xlink:href="#DejaVuSans-32"/>
       <use transform="translate(313.623047 0.78125)" xlink:href="#DejaVuSans-30"/>
      </g>
     </g>
    </g>
    <g id="xtick_3">
     <g id="line2d_3">
      <g>
       <use style="stroke:#000000;stroke-width:0.8;" x="162.63127" xlink:href="#m3f5a8f6b1d" y="188.638125"/>
      </g>
     </g>
     <g id="text_3">
      <!-- $40 \times 40$ -->
      <defs>
       <path d="M 37.796875 64.3125 
L 12.890625 25.390625 
L 37.796875 25.390625 
z
M 35.203125 72.90625 
L 47.609375 72.90625 
L 47.609375 25.390625 
L 58.015625 25.390625 
L 58.015625 17.1875 
L 47.609375 17.1875 
L 47.609375 0 
L 37.796875 0 
L 37.796875 17.1875 
L 4.890625 17.1875 
L 4.890625 26.703125 
z
" id="DejaVuSans-34"/>
      </defs>
      <g transform="translate(143.73127 203.236563)scale(0.1 -0.1)">
       <use transform="translate(0 0.78125)" xlink:href="#DejaVuSans-34"/>
       <use transform="translate(63.623047 0.78125)" xlink:href="#DejaVuSans-30"/>
       <use transform="translate(146.728516 0.78125)" xlink:href="#DejaVuSans-d7"/>
       <use transform="translate(250 0.78125)" xlink:href="#DejaVuSans-34"/>
       <use transform="translate(313.623047 0.78125)" xlink:href="#DejaVuSans-30"/>
      </g>
     </g>
    </g>
    <g id="xtick_4">
     <g id="line2d_4">
      <g>
       <use style="stroke:#000000;stroke-width:0.8;" x="209.746384" xlink:href="#m3f5a8f6b1d" y="188.638125"/>
      </g>
     </g>
     <g id="text_4">
      <!-- $80 \times 80$ -->
      <defs>
       <path d="M 31.78125 34.625 
Q 24.75 34.625 20.71875 30.859375 
Q 16.703125 27.09375 16.703125 20.515625 
Q 16.703125 13.921875 20.71875 10.15625 
Q 24.75 6.390625 31.78125 6.390625 
Q 38.8125 6.390625 42.859375 10.171875 
Q 46.921875 13.96875 46.921875 20.515625 
Q 46.921875 27.09375 42.890625 30.859375 
Q 38.875 34.625 31.78125 34.625 
z
M 21.921875 38.8125 
Q 15.578125 40.375 12.03125 44.71875 
Q 8.5 49.078125 8.5 55.328125 
Q 8.5 64.0625 14.71875 69.140625 
Q 20.953125 74.21875 31.78125 74.21875 
Q 42.671875 74.21875 48.875 69.140625 
Q 55.078125 64.0625 55.078125 55.328125 
Q 55.078125 49.078125 51.53125 44.71875 
Q 48 40.375 41.703125 38.8125 
Q 48.828125 37.15625 52.796875 32.3125 
Q 56.78125 27.484375 56.78125 20.515625 
Q 56.78125 9.90625 50.3125 4.234375 
Q 43.84375 -1.421875 31.78125 -1.421875 
Q 19.734375 -1.421875 13.25 4.234375 
Q 6.78125 9.90625 6.78125 20.515625 
Q 6.78125 27.484375 10.78125 32.3125 
Q 14.796875 37.15625 21.921875 38.8125 
z
M 18.3125 54.390625 
Q 18.3125 48.734375 21.84375 45.5625 
Q 25.390625 42.390625 31.78125 42.390625 
Q 38.140625 42.390625 41.71875 45.5625 
Q 45.3125 48.734375 45.3125 54.390625 
Q 45.3125 60.0625 41.71875 63.234375 
Q 38.140625 66.40625 31.78125 66.40625 
Q 25.390625 66.40625 21.84375 63.234375 
Q 18.3125 60.0625 18.3125 54.390625 
z
" id="DejaVuSans-38"/>
      </defs>
      <g transform="translate(190.846384 203.236563)scale(0.1 -0.1)">
       <use transform="translate(0 0.78125)" xlink:href="#DejaVuSans-38"/>
       <use transform="translate(63.623047 0.78125)" xlink:href="#DejaVuSans-30"/>
       <use transform="translate(146.728516 0.78125)" xlink:href="#DejaVuSans-d7"/>
       <use transform="translate(250 0.78125)" xlink:href="#DejaVuSans-38"/>
       <use transform="translate(313.623047 0.78125)" xlink:href="#DejaVuSans-30"/>
      </g>
     </g>
    </g>
    <g id="text_5">
     <!-- Blur Width -->
     <defs>
      <path d="M 19.671875 34.8125 
L 19.671875 8.109375 
L 35.5 8.109375 
Q 43.453125 8.109375 47.28125 11.40625 
Q 51.125 14.703125 51.125 21.484375 
Q 51.125 28.328125 47.28125 31.5625 
Q 43.453125 34.8125 35.5 34.8125 
z
M 19.671875 64.796875 
L 19.671875 42.828125 
L 34.28125 42.828125 
Q 41.5 42.828125 45.03125 45.53125 
Q 48.578125 48.25 48.578125 53.8125 
Q 48.578125 59.328125 45.03125 62.0625 
Q 41.5 64.796875 34.28125 64.796875 
z
M 9.8125 72.90625 
L 35.015625 72.90625 
Q 46.296875 72.90625 52.390625 68.21875 
Q 58.5 63.53125 58.5 54.890625 
Q 58.5 48.1875 55.375 44.234375 
Q 52.25 40.28125 46.1875 39.3125 
Q 53.46875 37.75 57.5 32.78125 
Q 61.53125 27.828125 61.53125 20.40625 
Q 61.53125 10.640625 54.890625 5.3125 
Q 48.25 0 35.984375 0 
L 9.8125 0 
z
" id="DejaVuSans-42"/>
      <path d="M 9.421875 75.984375 
L 18.40625 75.984375 
L 18.40625 0 
L 9.421875 0 
z
" id="DejaVuSans-6c"/>
      <path d="M 8.5 21.578125 
L 8.5 54.6875 
L 17.484375 54.6875 
L 17.484375 21.921875 
Q 17.484375 14.15625 20.5 10.265625 
Q 23.53125 6.390625 29.59375 6.390625 
Q 36.859375 6.390625 41.078125 11.03125 
Q 45.3125 15.671875 45.3125 23.6875 
L 45.3125 54.6875 
L 54.296875 54.6875 
L 54.296875 0 
L 45.3125 0 
L 45.3125 8.40625 
Q 42.046875 3.421875 37.71875 1 
Q 33.40625 -1.421875 27.6875 -1.421875 
Q 18.265625 -1.421875 13.375 4.4375 
Q 8.5 10.296875 8.5 21.578125 
z
M 31.109375 56 
z
" id="DejaVuSans-75"/>
      <path d="M 41.109375 46.296875 
Q 39.59375 47.171875 37.8125 47.578125 
Q 36.03125 48 33.890625 48 
Q 26.265625 48 22.1875 43.046875 
Q 18.109375 38.09375 18.109375 28.8125 
L 18.109375 0 
L 9.078125 0 
L 9.078125 54.6875 
L 18.109375 54.6875 
L 18.109375 46.1875 
Q 20.953125 51.171875 25.484375 53.578125 
Q 30.03125 56 36.53125 56 
Q 37.453125 56 38.578125 55.875 
Q 39.703125 55.765625 41.0625 55.515625 
z
" id="DejaVuSans-72"/>
      <path id="DejaVuSans-20"/>
      <path d="M 3.328125 72.90625 
L 13.28125 72.90625 
L 28.609375 11.28125 
L 43.890625 72.90625 
L 54.984375 72.90625 
L 70.3125 11.28125 
L 85.59375 72.90625 
L 95.609375 72.90625 
L 77.296875 0 
L 64.890625 0 
L 49.515625 63.28125 
L 33.984375 0 
L 21.578125 0 
z
" id="DejaVuSans-57"/>
      <path d="M 9.421875 54.6875 
L 18.40625 54.6875 
L 18.40625 0 
L 9.421875 0 
z
M 9.421875 75.984375 
L 18.40625 75.984375 
L 18.40625 64.59375 
L 9.421875 64.59375 
z
" id="DejaVuSans-69"/>
      <path d="M 45.40625 46.390625 
L 45.40625 75.984375 
L 54.390625 75.984375 
L 54.390625 0 
L 45.40625 0 
L 45.40625 8.203125 
Q 42.578125 3.328125 38.25 0.953125 
Q 33.9375 -1.421875 27.875 -1.421875 
Q 17.96875 -1.421875 11.734375 6.484375 
Q 5.515625 14.40625 5.515625 27.296875 
Q 5.515625 40.1875 11.734375 48.09375 
Q 17.96875 56 27.875 56 
Q 33.9375 56 38.25 53.625 
Q 42.578125 51.265625 45.40625 46.390625 
z
M 14.796875 27.296875 
Q 14.796875 17.390625 18.875 11.75 
Q 22.953125 6.109375 30.078125 6.109375 
Q 37.203125 6.109375 41.296875 11.75 
Q 45.40625 17.390625 45.40625 27.296875 
Q 45.40625 37.203125 41.296875 42.84375 
Q 37.203125 48.484375 30.078125 48.484375 
Q 22.953125 48.484375 18.875 42.84375 
Q 14.796875 37.203125 14.796875 27.296875 
z
" id="DejaVuSans-64"/>
      <path d="M 18.3125 70.21875 
L 18.3125 54.6875 
L 36.8125 54.6875 
L 36.8125 47.703125 
L 18.3125 47.703125 
L 18.3125 18.015625 
Q 18.3125 11.328125 20.140625 9.421875 
Q 21.96875 7.515625 27.59375 7.515625 
L 36.8125 7.515625 
L 36.8125 0 
L 27.59375 0 
Q 17.1875 0 13.234375 3.875 
Q 9.28125 7.765625 9.28125 18.015625 
L 9.28125 47.703125 
L 2.6875 47.703125 
L 2.6875 54.6875 
L 9.28125 54.6875 
L 9.28125 70.21875 
z
" id="DejaVuSans-74"/>
      <path d="M 54.890625 33.015625 
L 54.890625 0 
L 45.90625 0 
L 45.90625 32.71875 
Q 45.90625 40.484375 42.875 44.328125 
Q 39.84375 48.1875 33.796875 48.1875 
Q 26.515625 48.1875 22.3125 43.546875 
Q 18.109375 38.921875 18.109375 30.90625 
L 18.109375 0 
L 9.078125 0 
L 9.078125 75.984375 
L 18.109375 75.984375 
L 18.109375 46.1875 
Q 21.34375 51.125 25.703125 53.5625 
Q 30.078125 56 35.796875 56 
Q 45.21875 56 50.046875 50.171875 
Q 54.890625 44.34375 54.890625 33.015625 
z
" id="DejaVuSans-68"/>
     </defs>
     <g transform="translate(112.806526 216.914688)scale(0.1 -0.1)">
      <use xlink:href="#DejaVuSans-42"/>
      <use x="68.603516" xlink:href="#DejaVuSans-6c"/>
      <use x="96.386719" xlink:href="#DejaVuSans-75"/>
      <use x="159.765625" xlink:href="#DejaVuSans-72"/>
      <use x="200.878906" xlink:href="#DejaVuSans-20"/>
      <use x="232.666016" xlink:href="#DejaVuSans-57"/>
      <use x="331.511719" xlink:href="#DejaVuSans-69"/>
      <use x="359.294922" xlink:href="#DejaVuSans-64"/>
      <use x="422.771484" xlink:href="#DejaVuSans-74"/>
      <use x="461.980469" xlink:href="#DejaVuSans-68"/>
     </g>
    </g>
   </g>
   <g id="matplotlib.axis_2">
    <g id="ytick_1">
     <g id="line2d_5">
      <defs>
       <path d="M 0 0 
L -3.5 0 
" id="md3184a7f32" style="stroke:#000000;stroke-width:0.8;"/>
      </defs>
      <g>
       <use style="stroke:#000000;stroke-width:0.8;" x="40.603125" xlink:href="#md3184a7f32" y="188.638125"/>
      </g>
     </g>
     <g id="text_6">
      <!-- 0 -->
      <g transform="translate(27.240625 192.437344)scale(0.1 -0.1)">
       <use xlink:href="#DejaVuSans-30"/>
      </g>
     </g>
    </g>
    <g id="ytick_2">
     <g id="line2d_6">
      <g>
       <use style="stroke:#000000;stroke-width:0.8;" x="40.603125" xlink:href="#md3184a7f32" y="167.518125"/>
      </g>
     </g>
     <g id="text_7">
      <!-- 2 -->
      <g transform="translate(27.240625 171.317344)scale(0.1 -0.1)">
       <use xlink:href="#DejaVuSans-32"/>
      </g>
     </g>
    </g>
    <g id="ytick_3">
     <g id="line2d_7">
      <g>
       <use style="stroke:#000000;stroke-width:0.8;" x="40.603125" xlink:href="#md3184a7f32" y="146.398125"/>
      </g>
     </g>
     <g id="text_8">
      <!-- 4 -->
      <g transform="translate(27.240625 150.197344)scale(0.1 -0.1)">
       <use xlink:href="#DejaVuSans-34"/>
      </g>
     </g>
    </g>
    <g id="ytick_4">
     <g id="line2d_8">
      <g>
       <use style="stroke:#000000;stroke-width:0.8;" x="40.603125" xlink:href="#md3184a7f32" y="125.278125"/>
      </g>
     </g>
     <g id="text_9">
      <!-- 6 -->
      <defs>
       <path d="M 33.015625 40.375 
Q 26.375 40.375 22.484375 35.828125 
Q 18.609375 31.296875 18.609375 23.390625 
Q 18.609375 15.53125 22.484375 10.953125 
Q 26.375 6.390625 33.015625 6.390625 
Q 39.65625 6.390625 43.53125 10.953125 
Q 47.40625 15.53125 47.40625 23.390625 
Q 47.40625 31.296875 43.53125 35.828125 
Q 39.65625 40.375 33.015625 40.375 
z
M 52.59375 71.296875 
L 52.59375 62.3125 
Q 48.875 64.0625 45.09375 64.984375 
Q 41.3125 65.921875 37.59375 65.921875 
Q 27.828125 65.921875 22.671875 59.328125 
Q 17.53125 52.734375 16.796875 39.40625 
Q 19.671875 43.65625 24.015625 45.921875 
Q 28.375 48.1875 33.59375 48.1875 
Q 44.578125 48.1875 50.953125 41.515625 
Q 57.328125 34.859375 57.328125 23.390625 
Q 57.328125 12.15625 50.6875 5.359375 
Q 44.046875 -1.421875 33.015625 -1.421875 
Q 20.359375 -1.421875 13.671875 8.265625 
Q 6.984375 17.96875 6.984375 36.375 
Q 6.984375 53.65625 15.1875 63.9375 
Q 23.390625 74.21875 37.203125 74.21875 
Q 40.921875 74.21875 44.703125 73.484375 
Q 48.484375 72.75 52.59375 71.296875 
z
" id="DejaVuSans-36"/>
      </defs>
      <g transform="translate(27.240625 129.077344)scale(0.1 -0.1)">
       <use xlink:href="#DejaVuSans-36"/>
      </g>
     </g>
    </g>
    <g id="ytick_5">
     <g id="line2d_9">
      <g>
       <use style="stroke:#000000;stroke-width:0.8;" x="40.603125" xlink:href="#md3184a7f32" y="104.158125"/>
      </g>
     </g>
     <g id="text_10">
      <!-- 8 -->
      <g transform="translate(27.240625 107.957344)scale(0.1 -0.1)">
       <use xlink:href="#DejaVuSans-38"/>
      </g>
     </g>
    </g>
    <g id="ytick_6">
     <g id="line2d_10">
      <g>
       <use style="stroke:#000000;stroke-width:0.8;" x="40.603125" xlink:href="#md3184a7f32" y="83.038125"/>
      </g>
     </g>
     <g id="text_11">
      <!-- 10 -->
      <defs>
       <path d="M 12.40625 8.296875 
L 28.515625 8.296875 
L 28.515625 63.921875 
L 10.984375 60.40625 
L 10.984375 69.390625 
L 28.421875 72.90625 
L 38.28125 72.90625 
L 38.28125 8.296875 
L 54.390625 8.296875 
L 54.390625 0 
L 12.40625 0 
z
" id="DejaVuSans-31"/>
      </defs>
      <g transform="translate(20.878125 86.837344)scale(0.1 -0.1)">
       <use xlink:href="#DejaVuSans-31"/>
       <use x="63.623047" xlink:href="#DejaVuSans-30"/>
      </g>
     </g>
    </g>
    <g id="ytick_7">
     <g id="line2d_11">
      <g>
       <use style="stroke:#000000;stroke-width:0.8;" x="40.603125" xlink:href="#md3184a7f32" y="61.918125"/>
      </g>
     </g>
     <g id="text_12">
      <!-- 12 -->
      <g transform="translate(20.878125 65.717344)scale(0.1 -0.1)">
       <use xlink:href="#DejaVuSans-31"/>
       <use x="63.623047" xlink:href="#DejaVuSans-32"/>
      </g>
     </g>
    </g>
    <g id="ytick_8">
     <g id="line2d_12">
      <g>
       <use style="stroke:#000000;stroke-width:0.8;" x="40.603125" xlink:href="#md3184a7f32" y="40.798125"/>
      </g>
     </g>
     <g id="text_13">
      <!-- 14 -->
      <g transform="translate(20.878125 44.597344)scale(0.1 -0.1)">
       <use xlink:href="#DejaVuSans-31"/>
       <use x="63.623047" xlink:href="#DejaVuSans-34"/>
      </g>
     </g>
    </g>
    <g id="text_14">
     <!-- Angular Error (Degrees) -->
     <defs>
      <path d="M 34.1875 63.1875 
L 20.796875 26.90625 
L 47.609375 26.90625 
z
M 28.609375 72.90625 
L 39.796875 72.90625 
L 67.578125 0 
L 57.328125 0 
L 50.6875 18.703125 
L 17.828125 18.703125 
L 11.1875 0 
L 0.78125 0 
z
" id="DejaVuSans-41"/>
      <path d="M 54.890625 33.015625 
L 54.890625 0 
L 45.90625 0 
L 45.90625 32.71875 
Q 45.90625 40.484375 42.875 44.328125 
Q 39.84375 48.1875 33.796875 48.1875 
Q 26.515625 48.1875 22.3125 43.546875 
Q 18.109375 38.921875 18.109375 30.90625 
L 18.109375 0 
L 9.078125 0 
L 9.078125 54.6875 
L 18.109375 54.6875 
L 18.109375 46.1875 
Q 21.34375 51.125 25.703125 53.5625 
Q 30.078125 56 35.796875 56 
Q 45.21875 56 50.046875 50.171875 
Q 54.890625 44.34375 54.890625 33.015625 
z
" id="DejaVuSans-6e"/>
      <path d="M 45.40625 27.984375 
Q 45.40625 37.75 41.375 43.109375 
Q 37.359375 48.484375 30.078125 48.484375 
Q 22.859375 48.484375 18.828125 43.109375 
Q 14.796875 37.75 14.796875 27.984375 
Q 14.796875 18.265625 18.828125 12.890625 
Q 22.859375 7.515625 30.078125 7.515625 
Q 37.359375 7.515625 41.375 12.890625 
Q 45.40625 18.265625 45.40625 27.984375 
z
M 54.390625 6.78125 
Q 54.390625 -7.171875 48.1875 -13.984375 
Q 42 -20.796875 29.203125 -20.796875 
Q 24.46875 -20.796875 20.265625 -20.09375 
Q 16.0625 -19.390625 12.109375 -17.921875 
L 12.109375 -9.1875 
Q 16.0625 -11.328125 19.921875 -12.34375 
Q 23.78125 -13.375 27.78125 -13.375 
Q 36.625 -13.375 41.015625 -8.765625 
Q 45.40625 -4.15625 45.40625 5.171875 
L 45.40625 9.625 
Q 42.625 4.78125 38.28125 2.390625 
Q 33.9375 0 27.875 0 
Q 17.828125 0 11.671875 7.65625 
Q 5.515625 15.328125 5.515625 27.984375 
Q 5.515625 40.671875 11.671875 48.328125 
Q 17.828125 56 27.875 56 
Q 33.9375 56 38.28125 53.609375 
Q 42.625 51.21875 45.40625 46.390625 
L 45.40625 54.6875 
L 54.390625 54.6875 
z
" id="DejaVuSans-67"/>
      <path d="M 34.28125 27.484375 
Q 23.390625 27.484375 19.1875 25 
Q 14.984375 22.515625 14.984375 16.5 
Q 14.984375 11.71875 18.140625 8.90625 
Q 21.296875 6.109375 26.703125 6.109375 
Q 34.1875 6.109375 38.703125 11.40625 
Q 43.21875 16.703125 43.21875 25.484375 
L 43.21875 27.484375 
z
M 52.203125 31.203125 
L 52.203125 0 
L 43.21875 0 
L 43.21875 8.296875 
Q 40.140625 3.328125 35.546875 0.953125 
Q 30.953125 -1.421875 24.3125 -1.421875 
Q 15.921875 -1.421875 10.953125 3.296875 
Q 6 8.015625 6 15.921875 
Q 6 25.140625 12.171875 29.828125 
Q 18.359375 34.515625 30.609375 34.515625 
L 43.21875 34.515625 
L 43.21875 35.40625 
Q 43.21875 41.609375 39.140625 45 
Q 35.0625 48.390625 27.6875 48.390625 
Q 23 48.390625 18.546875 47.265625 
Q 14.109375 46.140625 10.015625 43.890625 
L 10.015625 52.203125 
Q 14.9375 54.109375 19.578125 55.046875 
Q 24.21875 56 28.609375 56 
Q 40.484375 56 46.34375 49.84375 
Q 52.203125 43.703125 52.203125 31.203125 
z
" id="DejaVuSans-61"/>
      <path d="M 9.8125 72.90625 
L 55.90625 72.90625 
L 55.90625 64.59375 
L 19.671875 64.59375 
L 19.671875 43.015625 
L 54.390625 43.015625 
L 54.390625 34.71875 
L 19.671875 34.71875 
L 19.671875 8.296875 
L 56.78125 8.296875 
L 56.78125 0 
L 9.8125 0 
z
" id="DejaVuSans-45"/>
      <path d="M 30.609375 48.390625 
Q 23.390625 48.390625 19.1875 42.75 
Q 14.984375 37.109375 14.984375 27.296875 
Q 14.984375 17.484375 19.15625 11.84375 
Q 23.34375 6.203125 30.609375 6.203125 
Q 37.796875 6.203125 41.984375 11.859375 
Q 46.1875 17.53125 46.1875 27.296875 
Q 46.1875 37.015625 41.984375 42.703125 
Q 37.796875 48.390625 30.609375 48.390625 
z
M 30.609375 56 
Q 42.328125 56 49.015625 48.375 
Q 55.71875 40.765625 55.71875 27.296875 
Q 55.71875 13.875 49.015625 6.21875 
Q 42.328125 -1.421875 30.609375 -1.421875 
Q 18.84375 -1.421875 12.171875 6.21875 
Q 5.515625 13.875 5.515625 27.296875 
Q 5.515625 40.765625 12.171875 48.375 
Q 18.84375 56 30.609375 56 
z
" id="DejaVuSans-6f"/>
      <path d="M 31 75.875 
Q 24.46875 64.65625 21.28125 53.65625 
Q 18.109375 42.671875 18.109375 31.390625 
Q 18.109375 20.125 21.3125 9.0625 
Q 24.515625 -2 31 -13.1875 
L 23.1875 -13.1875 
Q 15.875 -1.703125 12.234375 9.375 
Q 8.59375 20.453125 8.59375 31.390625 
Q 8.59375 42.28125 12.203125 53.3125 
Q 15.828125 64.359375 23.1875 75.875 
z
" id="DejaVuSans-28"/>
      <path d="M 19.671875 64.796875 
L 19.671875 8.109375 
L 31.59375 8.109375 
Q 46.6875 8.109375 53.6875 14.9375 
Q 60.6875 21.78125 60.6875 36.53125 
Q 60.6875 51.171875 53.6875 57.984375 
Q 46.6875 64.796875 31.59375 64.796875 
z
M 9.8125 72.90625 
L 30.078125 72.90625 
Q 51.265625 72.90625 61.171875 64.09375 
Q 71.09375 55.28125 71.09375 36.53125 
Q 71.09375 17.671875 61.125 8.828125 
Q 51.171875 0 30.078125 0 
L 9.8125 0 
z
" id="DejaVuSans-44"/>
      <path d="M 56.203125 29.59375 
L 56.203125 25.203125 
L 14.890625 25.203125 
Q 15.484375 15.921875 20.484375 11.0625 
Q 25.484375 6.203125 34.421875 6.203125 
Q 39.59375 6.203125 44.453125 7.46875 
Q 49.3125 8.734375 54.109375 11.28125 
L 54.109375 2.78125 
Q 49.265625 0.734375 44.1875 -0.34375 
Q 39.109375 -1.421875 33.890625 -1.421875 
Q 20.796875 -1.421875 13.15625 6.1875 
Q 5.515625 13.8125 5.515625 26.8125 
Q 5.515625 40.234375 12.765625 48.109375 
Q 20.015625 56 32.328125 56 
Q 43.359375 56 49.78125 48.890625 
Q 56.203125 41.796875 56.203125 29.59375 
z
M 47.21875 32.234375 
Q 47.125 39.59375 43.09375 43.984375 
Q 39.0625 48.390625 32.421875 48.390625 
Q 24.90625 48.390625 20.390625 44.140625 
Q 15.875 39.890625 15.1875 32.171875 
z
" id="DejaVuSans-65"/>
      <path d="M 44.28125 53.078125 
L 44.28125 44.578125 
Q 40.484375 46.53125 36.375 47.5 
Q 32.28125 48.484375 27.875 48.484375 
Q 21.1875 48.484375 17.84375 46.4375 
Q 14.5 44.390625 14.5 40.28125 
Q 14.5 37.15625 16.890625 35.375 
Q 19.28125 33.59375 26.515625 31.984375 
L 29.59375 31.296875 
Q 39.15625 29.25 43.1875 25.515625 
Q 47.21875 21.78125 47.21875 15.09375 
Q 47.21875 7.46875 41.1875 3.015625 
Q 35.15625 -1.421875 24.609375 -1.421875 
Q 20.21875 -1.421875 15.453125 -0.5625 
Q 10.6875 0.296875 5.421875 2 
L 5.421875 11.28125 
Q 10.40625 8.6875 15.234375 7.390625 
Q 20.0625 6.109375 24.8125 6.109375 
Q 31.15625 6.109375 34.5625 8.28125 
Q 37.984375 10.453125 37.984375 14.40625 
Q 37.984375 18.0625 35.515625 20.015625 
Q 33.0625 21.96875 24.703125 23.78125 
L 21.578125 24.515625 
Q 13.234375 26.265625 9.515625 29.90625 
Q 5.8125 33.546875 5.8125 39.890625 
Q 5.8125 47.609375 11.28125 51.796875 
Q 16.75 56 26.8125 56 
Q 31.78125 56 36.171875 55.265625 
Q 40.578125 54.546875 44.28125 53.078125 
z
" id="DejaVuSans-73"/>
      <path d="M 8.015625 75.875 
L 15.828125 75.875 
Q 23.140625 64.359375 26.78125 53.3125 
Q 30.421875 42.28125 30.421875 31.390625 
Q 30.421875 20.453125 26.78125 9.375 
Q 23.140625 -1.703125 15.828125 -13.1875 
L 8.015625 -13.1875 
Q 14.5 -2 17.703125 9.0625 
Q 20.90625 20.125 20.90625 31.390625 
Q 20.90625 42.671875 17.703125 53.65625 
Q 14.5 64.65625 8.015625 75.875 
z
" id="DejaVuSans-29"/>
     </defs>
     <g transform="translate(14.798438 165.29375)rotate(-90)scale(0.1 -0.1)">
      <use xlink:href="#DejaVuSans-41"/>
      <use x="68.408203" xlink:href="#DejaVuSans-6e"/>
      <use x="131.787109" xlink:href="#DejaVuSans-67"/>
      <use x="195.263672" xlink:href="#DejaVuSans-75"/>
      <use x="258.642578" xlink:href="#DejaVuSans-6c"/>
      <use x="286.425781" xlink:href="#DejaVuSans-61"/>
      <use x="347.705078" xlink:href="#DejaVuSans-72"/>
      <use x="388.818359" xlink:href="#DejaVuSans-20"/>
      <use x="420.605469" xlink:href="#DejaVuSans-45"/>
      <use x="483.789062" xlink:href="#DejaVuSans-72"/>
      <use x="524.886719" xlink:href="#DejaVuSans-72"/>
      <use x="565.96875" xlink:href="#DejaVuSans-6f"/>
      <use x="627.150391" xlink:href="#DejaVuSans-72"/>
      <use x="668.263672" xlink:href="#DejaVuSans-20"/>
      <use x="700.050781" xlink:href="#DejaVuSans-28"/>
      <use x="739.064453" xlink:href="#DejaVuSans-44"/>
      <use x="816.066406" xlink:href="#DejaVuSans-65"/>
      <use x="877.589844" xlink:href="#DejaVuSans-67"/>
      <use x="941.066406" xlink:href="#DejaVuSans-72"/>
      <use x="982.148438" xlink:href="#DejaVuSans-65"/>
      <use x="1043.671875" xlink:href="#DejaVuSans-65"/>
      <use x="1105.195312" xlink:href="#DejaVuSans-73"/>
      <use x="1157.294922" xlink:href="#DejaVuSans-29"/>
     </g>
    </g>
   </g>
   <g id="patch_19">
    <path d="M 40.603125 188.638125 
L 40.603125 22.318125 
" style="fill:none;stroke:#000000;stroke-linecap:square;stroke-linejoin:miter;stroke-width:0.8;"/>
   </g>
   <g id="patch_20">
    <path d="M 237.544301 188.638125 
L 237.544301 22.318125 
" style="fill:none;stroke:#000000;stroke-linecap:square;stroke-linejoin:miter;stroke-width:0.8;"/>
   </g>
   <g id="patch_21">
    <path d="M 40.603125 188.638125 
L 237.544301 188.638125 
" style="fill:none;stroke:#000000;stroke-linecap:square;stroke-linejoin:miter;stroke-width:0.8;"/>
   </g>
   <g id="patch_22">
    <path d="M 40.603125 22.318125 
L 237.544301 22.318125 
" style="fill:none;stroke:#000000;stroke-linecap:square;stroke-linejoin:miter;stroke-width:0.8;"/>
   </g>
   <g id="text_15">
    <!-- Simple -->
    <defs>
     <path d="M 53.515625 70.515625 
L 53.515625 60.890625 
Q 47.90625 63.578125 42.921875 64.890625 
Q 37.9375 66.21875 33.296875 66.21875 
Q 25.25 66.21875 20.875 63.09375 
Q 16.5 59.96875 16.5 54.203125 
Q 16.5 49.359375 19.40625 46.890625 
Q 22.3125 44.4375 30.421875 42.921875 
L 36.375 41.703125 
Q 47.40625 39.59375 52.65625 34.296875 
Q 57.90625 29 57.90625 20.125 
Q 57.90625 9.515625 50.796875 4.046875 
Q 43.703125 -1.421875 29.984375 -1.421875 
Q 24.8125 -1.421875 18.96875 -0.25 
Q 13.140625 0.921875 6.890625 3.21875 
L 6.890625 13.375 
Q 12.890625 10.015625 18.65625 8.296875 
Q 24.421875 6.59375 29.984375 6.59375 
Q 38.421875 6.59375 43.015625 9.90625 
Q 47.609375 13.234375 47.609375 19.390625 
Q 47.609375 24.75 44.3125 27.78125 
Q 41.015625 30.8125 33.5 32.328125 
L 27.484375 33.5 
Q 16.453125 35.6875 11.515625 40.375 
Q 6.59375 45.0625 6.59375 53.421875 
Q 6.59375 63.09375 13.40625 68.65625 
Q 20.21875 74.21875 32.171875 74.21875 
Q 37.3125 74.21875 42.625 73.28125 
Q 47.953125 72.359375 53.515625 70.515625 
z
" id="DejaVuSans-53"/>
     <path d="M 52 44.1875 
Q 55.375 50.25 60.0625 53.125 
Q 64.75 56 71.09375 56 
Q 79.640625 56 84.28125 50.015625 
Q 88.921875 44.046875 88.921875 33.015625 
L 88.921875 0 
L 79.890625 0 
L 79.890625 32.71875 
Q 79.890625 40.578125 77.09375 44.375 
Q 74.3125 48.1875 68.609375 48.1875 
Q 61.625 48.1875 57.5625 43.546875 
Q 53.515625 38.921875 53.515625 30.90625 
L 53.515625 0 
L 44.484375 0 
L 44.484375 32.71875 
Q 44.484375 40.625 41.703125 44.40625 
Q 38.921875 48.1875 33.109375 48.1875 
Q 26.21875 48.1875 22.15625 43.53125 
Q 18.109375 38.875 18.109375 30.90625 
L 18.109375 0 
L 9.078125 0 
L 9.078125 54.6875 
L 18.109375 54.6875 
L 18.109375 46.1875 
Q 21.1875 51.21875 25.484375 53.609375 
Q 29.78125 56 35.6875 56 
Q 41.65625 56 45.828125 52.96875 
Q 50 49.953125 52 44.1875 
z
" id="DejaVuSans-6d"/>
     <path d="M 18.109375 8.203125 
L 18.109375 -20.796875 
L 9.078125 -20.796875 
L 9.078125 54.6875 
L 18.109375 54.6875 
L 18.109375 46.390625 
Q 20.953125 51.265625 25.265625 53.625 
Q 29.59375 56 35.59375 56 
Q 45.5625 56 51.78125 48.09375 
Q 58.015625 40.1875 58.015625 27.296875 
Q 58.015625 14.40625 51.78125 6.484375 
Q 45.5625 -1.421875 35.59375 -1.421875 
Q 29.59375 -1.421875 25.265625 0.953125 
Q 20.953125 3.328125 18.109375 8.203125 
z
M 48.6875 27.296875 
Q 48.6875 37.203125 44.609375 42.84375 
Q 40.53125 48.484375 33.40625 48.484375 
Q 26.265625 48.484375 22.1875 42.84375 
Q 18.109375 37.203125 18.109375 27.296875 
Q 18.109375 17.390625 22.1875 11.75 
Q 26.265625 6.109375 33.40625 6.109375 
Q 40.53125 6.109375 44.609375 11.75 
Q 48.6875 17.390625 48.6875 27.296875 
z
" id="DejaVuSans-70"/>
    </defs>
    <g transform="translate(118.585588 16.318125)scale(0.12 -0.12)">
     <use xlink:href="#DejaVuSans-53"/>
     <use x="63.476562" xlink:href="#DejaVuSans-69"/>
     <use x="91.259766" xlink:href="#DejaVuSans-6d"/>
     <use x="188.671875" xlink:href="#DejaVuSans-70"/>
     <use x="252.148438" xlink:href="#DejaVuSans-6c"/>
     <use x="279.931641" xlink:href="#DejaVuSans-65"/>
    </g>
   </g>
   <g id="legend_1">
    <g id="patch_23">
     <path d="M 47.603125 89.030625 
L 120.103125 89.030625 
Q 122.103125 89.030625 122.103125 87.030625 
L 122.103125 29.318125 
Q 122.103125 27.318125 120.103125 27.318125 
L 47.603125 27.318125 
Q 45.603125 27.318125 45.603125 29.318125 
L 45.603125 87.030625 
Q 45.603125 89.030625 47.603125 89.030625 
z
" style="fill:#ffffff;opacity:0.8;stroke:#cccccc;stroke-linejoin:miter;"/>
    </g>
    <g id="patch_24">
     <path d="M 49.603125 38.916562 
L 69.603125 38.916562 
L 69.603125 31.916562 
L 49.603125 31.916562 
z
" style="fill:#1f77b4;"/>
    </g>
    <g id="text_16">
     <!-- TDA -->
     <defs>
      <path d="M -0.296875 72.90625 
L 61.375 72.90625 
L 61.375 64.59375 
L 35.5 64.59375 
L 35.5 0 
L 25.59375 0 
L 25.59375 64.59375 
L -0.296875 64.59375 
z
" id="DejaVuSans-54"/>
     </defs>
     <g transform="translate(77.603125 38.916562)scale(0.1 -0.1)">
      <use xlink:href="#DejaVuSans-54"/>
      <use x="61.083984" xlink:href="#DejaVuSans-44"/>
      <use x="138.070312" xlink:href="#DejaVuSans-41"/>
     </g>
    </g>
    <g id="patch_25">
     <path d="M 49.603125 53.594687 
L 69.603125 53.594687 
L 69.603125 46.594687 
L 49.603125 46.594687 
z
" style="fill:#ff7f0e;"/>
    </g>
    <g id="text_17">
     <!-- $\kappa = 0.05$ -->
     <defs>
      <path d="M 14.65625 54.6875 
L 23.921875 54.6875 
L 19.484375 31.984375 
L 47.515625 54.6875 
L 58.453125 54.6875 
L 32.90625 34.078125 
L 51.171875 0 
L 40.1875 0 
L 25.4375 28.21875 
L 17.53125 21.921875 
L 13.28125 0 
L 4 0 
z
" id="DejaVuSans-Oblique-3ba"/>
      <path d="M 10.59375 45.40625 
L 73.1875 45.40625 
L 73.1875 37.203125 
L 10.59375 37.203125 
z
M 10.59375 25.484375 
L 73.1875 25.484375 
L 73.1875 17.1875 
L 10.59375 17.1875 
z
" id="DejaVuSans-3d"/>
      <path d="M 10.6875 12.40625 
L 21 12.40625 
L 21 0 
L 10.6875 0 
z
" id="DejaVuSans-2e"/>
      <path d="M 10.796875 72.90625 
L 49.515625 72.90625 
L 49.515625 64.59375 
L 19.828125 64.59375 
L 19.828125 46.734375 
Q 21.96875 47.46875 24.109375 47.828125 
Q 26.265625 48.1875 28.421875 48.1875 
Q 40.625 48.1875 47.75 41.5 
Q 54.890625 34.8125 54.890625 23.390625 
Q 54.890625 11.625 47.5625 5.09375 
Q 40.234375 -1.421875 26.90625 -1.421875 
Q 22.3125 -1.421875 17.546875 -0.640625 
Q 12.796875 0.140625 7.71875 1.703125 
L 7.71875 11.625 
Q 12.109375 9.234375 16.796875 8.0625 
Q 21.484375 6.890625 26.703125 6.890625 
Q 35.15625 6.890625 40.078125 11.328125 
Q 45.015625 15.765625 45.015625 23.390625 
Q 45.015625 31 40.078125 35.4375 
Q 35.15625 39.890625 26.703125 39.890625 
Q 22.75 39.890625 18.8125 39.015625 
Q 14.890625 38.140625 10.796875 36.28125 
z
" id="DejaVuSans-35"/>
     </defs>
     <g transform="translate(77.603125 53.594687)scale(0.1 -0.1)">
      <use transform="translate(0 0.78125)" xlink:href="#DejaVuSans-Oblique-3ba"/>
      <use transform="translate(78.417969 0.78125)" xlink:href="#DejaVuSans-3d"/>
      <use transform="translate(181.689453 0.78125)" xlink:href="#DejaVuSans-30"/>
      <use transform="translate(245.3125 0.78125)" xlink:href="#DejaVuSans-2e"/>
      <use transform="translate(277.099609 0.78125)" xlink:href="#DejaVuSans-30"/>
      <use transform="translate(340.722656 0.78125)" xlink:href="#DejaVuSans-35"/>
     </g>
    </g>
    <g id="patch_26">
     <path d="M 49.603125 68.272812 
L 69.603125 68.272812 
L 69.603125 61.272812 
L 49.603125 61.272812 
z
" style="fill:#2ca02c;"/>
    </g>
    <g id="text_18">
     <!-- $\kappa = 0.1$ -->
     <g transform="translate(77.603125 68.272812)scale(0.1 -0.1)">
      <use transform="translate(0 0.78125)" xlink:href="#DejaVuSans-Oblique-3ba"/>
      <use transform="translate(78.417969 0.78125)" xlink:href="#DejaVuSans-3d"/>
      <use transform="translate(181.689453 0.78125)" xlink:href="#DejaVuSans-30"/>
      <use transform="translate(245.3125 0.78125)" xlink:href="#DejaVuSans-2e"/>
      <use transform="translate(277.099609 0.78125)" xlink:href="#DejaVuSans-31"/>
     </g>
    </g>
    <g id="patch_27">
     <path d="M 49.603125 82.950938 
L 69.603125 82.950938 
L 69.603125 75.950938 
L 49.603125 75.950938 
z
" style="fill:#d62728;"/>
    </g>
    <g id="text_19">
     <!-- $\kappa = 0.15$ -->
     <g transform="translate(77.603125 82.950938)scale(0.1 -0.1)">
      <use transform="translate(0 0.78125)" xlink:href="#DejaVuSans-Oblique-3ba"/>
      <use transform="translate(78.417969 0.78125)" xlink:href="#DejaVuSans-3d"/>
      <use transform="translate(181.689453 0.78125)" xlink:href="#DejaVuSans-30"/>
      <use transform="translate(245.3125 0.78125)" xlink:href="#DejaVuSans-2e"/>
      <use transform="translate(277.099609 0.78125)" xlink:href="#DejaVuSans-31"/>
      <use transform="translate(340.722656 0.78125)" xlink:href="#DejaVuSans-35"/>
     </g>
    </g>
   </g>
  </g>
  <g id="axes_2">
   <g id="patch_28">
    <path d="M 276.932537 188.638125 
L 473.873713 188.638125 
L 473.873713 22.318125 
L 276.932537 22.318125 
z
" style="fill:#ffffff;"/>
   </g>
   <g id="patch_29">
    <path clip-path="url(#p4d842b0df5)" d="M 285.884408 188.638125 
L 295.307431 188.638125 
L 295.307431 184.640081 
L 285.884408 184.640081 
z
" style="fill:#1f77b4;"/>
   </g>
   <g id="patch_30">
    <path clip-path="url(#p4d842b0df5)" d="M 332.999522 188.638125 
L 342.422545 188.638125 
L 342.422545 177.985898 
L 332.999522 177.985898 
z
" style="fill:#1f77b4;"/>
   </g>
   <g id="patch_31">
    <path clip-path="url(#p4d842b0df5)" d="M 380.114636 188.638125 
L 389.537659 188.638125 
L 389.537659 102.175243 
L 380.114636 102.175243 
z
" style="fill:#1f77b4;"/>
   </g>
   <g id="patch_32">
    <path clip-path="url(#p4d842b0df5)" d="M 427.22975 188.638125 
L 436.652773 188.638125 
L 436.652773 30.238125 
L 427.22975 30.238125 
z
" style="fill:#1f77b4;"/>
   </g>
   <g id="patch_33">
    <path clip-path="url(#p4d842b0df5)" d="M 295.307431 188.638125 
L 304.730454 188.638125 
L 304.730454 183.837706 
L 295.307431 183.837706 
z
" style="fill:#ff7f0e;"/>
   </g>
   <g id="patch_34">
    <path clip-path="url(#p4d842b0df5)" d="M 342.422545 188.638125 
L 351.845568 188.638125 
L 351.845568 178.954282 
L 342.422545 178.954282 
z
" style="fill:#ff7f0e;"/>
   </g>
   <g id="patch_35">
    <path clip-path="url(#p4d842b0df5)" d="M 389.537659 188.638125 
L 398.960682 188.638125 
L 398.960682 88.341182 
L 389.537659 88.341182 
z
" style="fill:#ff7f0e;"/>
   </g>
   <g id="patch_36">
    <path clip-path="url(#p4d842b0df5)" d="M 436.652773 188.638125 
L 446.075796 188.638125 
L 446.075796 52.372623 
L 436.652773 52.372623 
z
" style="fill:#ff7f0e;"/>
   </g>
   <g id="patch_37">
    <path clip-path="url(#p4d842b0df5)" d="M 304.730454 188.638125 
L 314.153477 188.638125 
L 314.153477 184.238894 
L 304.730454 184.238894 
z
" style="fill:#2ca02c;"/>
   </g>
   <g id="patch_38">
    <path clip-path="url(#p4d842b0df5)" d="M 351.845568 188.638125 
L 361.268591 188.638125 
L 361.268591 179.645985 
L 351.845568 179.645985 
z
" style="fill:#2ca02c;"/>
   </g>
   <g id="patch_39">
    <path clip-path="url(#p4d842b0df5)" d="M 398.960682 188.638125 
L 408.383705 188.638125 
L 408.383705 82.115854 
L 398.960682 82.115854 
z
" style="fill:#2ca02c;"/>
   </g>
   <g id="patch_40">
    <path clip-path="url(#p4d842b0df5)" d="M 446.075796 188.638125 
L 455.498819 188.638125 
L 455.498819 63.439872 
L 446.075796 63.439872 
z
" style="fill:#2ca02c;"/>
   </g>
   <g id="patch_41">
    <path clip-path="url(#p4d842b0df5)" d="M 314.153477 188.638125 
L 323.5765 188.638125 
L 323.5765 183.574859 
L 314.153477 183.574859 
z
" style="fill:#d62728;"/>
   </g>
   <g id="patch_42">
    <path clip-path="url(#p4d842b0df5)" d="M 361.268591 188.638125 
L 370.691614 188.638125 
L 370.691614 149.14188 
L 361.268591 149.14188 
z
" style="fill:#d62728;"/>
   </g>
   <g id="patch_43">
    <path clip-path="url(#p4d842b0df5)" d="M 408.383705 188.638125 
L 417.806728 188.638125 
L 417.806728 90.416291 
L 408.383705 90.416291 
z
" style="fill:#d62728;"/>
   </g>
   <g id="patch_44">
    <path clip-path="url(#p4d842b0df5)" d="M 455.498819 188.638125 
L 464.921842 188.638125 
L 464.921842 52.372623 
L 455.498819 52.372623 
z
" style="fill:#d62728;"/>
   </g>
   <g id="matplotlib.axis_3">
    <g id="xtick_5">
     <g id="line2d_13">
      <g>
       <use style="stroke:#000000;stroke-width:0.8;" x="304.730454" xlink:href="#m3f5a8f6b1d" y="188.638125"/>
      </g>
     </g>
     <g id="text_20">
      <!-- 0 -->
      <g transform="translate(301.549204 203.236563)scale(0.1 -0.1)">
       <use xlink:href="#DejaVuSans-30"/>
      </g>
     </g>
    </g>
    <g id="xtick_6">
     <g id="line2d_14">
      <g>
       <use style="stroke:#000000;stroke-width:0.8;" x="351.845568" xlink:href="#m3f5a8f6b1d" y="188.638125"/>
      </g>
     </g>
     <g id="text_21">
      <!-- $20 \times 20$ -->
      <g transform="translate(332.945568 203.236563)scale(0.1 -0.1)">
       <use transform="translate(0 0.78125)" xlink:href="#DejaVuSans-32"/>
       <use transform="translate(63.623047 0.78125)" xlink:href="#DejaVuSans-30"/>
       <use transform="translate(146.728516 0.78125)" xlink:href="#DejaVuSans-d7"/>
       <use transform="translate(250 0.78125)" xlink:href="#DejaVuSans-32"/>
       <use transform="translate(313.623047 0.78125)" xlink:href="#DejaVuSans-30"/>
      </g>
     </g>
    </g>
    <g id="xtick_7">
     <g id="line2d_15">
      <g>
       <use style="stroke:#000000;stroke-width:0.8;" x="398.960682" xlink:href="#m3f5a8f6b1d" y="188.638125"/>
      </g>
     </g>
     <g id="text_22">
      <!-- $40 \times 40$ -->
      <g transform="translate(380.060682 203.236563)scale(0.1 -0.1)">
       <use transform="translate(0 0.78125)" xlink:href="#DejaVuSans-34"/>
       <use transform="translate(63.623047 0.78125)" xlink:href="#DejaVuSans-30"/>
       <use transform="translate(146.728516 0.78125)" xlink:href="#DejaVuSans-d7"/>
       <use transform="translate(250 0.78125)" xlink:href="#DejaVuSans-34"/>
       <use transform="translate(313.623047 0.78125)" xlink:href="#DejaVuSans-30"/>
      </g>
     </g>
    </g>
    <g id="xtick_8">
     <g id="line2d_16">
      <g>
       <use style="stroke:#000000;stroke-width:0.8;" x="446.075796" xlink:href="#m3f5a8f6b1d" y="188.638125"/>
      </g>
     </g>
     <g id="text_23">
      <!-- $80 \times 80$ -->
      <g transform="translate(427.175796 203.236563)scale(0.1 -0.1)">
       <use transform="translate(0 0.78125)" xlink:href="#DejaVuSans-38"/>
       <use transform="translate(63.623047 0.78125)" xlink:href="#DejaVuSans-30"/>
       <use transform="translate(146.728516 0.78125)" xlink:href="#DejaVuSans-d7"/>
       <use transform="translate(250 0.78125)" xlink:href="#DejaVuSans-38"/>
       <use transform="translate(313.623047 0.78125)" xlink:href="#DejaVuSans-30"/>
      </g>
     </g>
    </g>
    <g id="text_24">
     <!-- Blur Width -->
     <g transform="translate(349.135938 216.914688)scale(0.1 -0.1)">
      <use xlink:href="#DejaVuSans-42"/>
      <use x="68.603516" xlink:href="#DejaVuSans-6c"/>
      <use x="96.386719" xlink:href="#DejaVuSans-75"/>
      <use x="159.765625" xlink:href="#DejaVuSans-72"/>
      <use x="200.878906" xlink:href="#DejaVuSans-20"/>
      <use x="232.666016" xlink:href="#DejaVuSans-57"/>
      <use x="331.511719" xlink:href="#DejaVuSans-69"/>
      <use x="359.294922" xlink:href="#DejaVuSans-64"/>
      <use x="422.771484" xlink:href="#DejaVuSans-74"/>
      <use x="461.980469" xlink:href="#DejaVuSans-68"/>
     </g>
    </g>
   </g>
   <g id="matplotlib.axis_4">
    <g id="ytick_9">
     <g id="line2d_17">
      <g>
       <use style="stroke:#000000;stroke-width:0.8;" x="276.932537" xlink:href="#md3184a7f32" y="188.638125"/>
      </g>
     </g>
     <g id="text_25">
      <!-- 0 -->
      <g transform="translate(263.570037 192.437344)scale(0.1 -0.1)">
       <use xlink:href="#DejaVuSans-30"/>
      </g>
     </g>
    </g>
    <g id="ytick_10">
     <g id="line2d_18">
      <g>
       <use style="stroke:#000000;stroke-width:0.8;" x="276.932537" xlink:href="#md3184a7f32" y="154.052972"/>
      </g>
     </g>
     <g id="text_26">
      <!-- 5 -->
      <g transform="translate(263.570037 157.852191)scale(0.1 -0.1)">
       <use xlink:href="#DejaVuSans-35"/>
      </g>
     </g>
    </g>
    <g id="ytick_11">
     <g id="line2d_19">
      <g>
       <use style="stroke:#000000;stroke-width:0.8;" x="276.932537" xlink:href="#md3184a7f32" y="119.467819"/>
      </g>
     </g>
     <g id="text_27">
      <!-- 10 -->
      <g transform="translate(257.207537 123.267038)scale(0.1 -0.1)">
       <use xlink:href="#DejaVuSans-31"/>
       <use x="63.623047" xlink:href="#DejaVuSans-30"/>
      </g>
     </g>
    </g>
    <g id="ytick_12">
     <g id="line2d_20">
      <g>
       <use style="stroke:#000000;stroke-width:0.8;" x="276.932537" xlink:href="#md3184a7f32" y="84.882666"/>
      </g>
     </g>
     <g id="text_28">
      <!-- 15 -->
      <g transform="translate(257.207537 88.681885)scale(0.1 -0.1)">
       <use xlink:href="#DejaVuSans-31"/>
       <use x="63.623047" xlink:href="#DejaVuSans-35"/>
      </g>
     </g>
    </g>
    <g id="ytick_13">
     <g id="line2d_21">
      <g>
       <use style="stroke:#000000;stroke-width:0.8;" x="276.932537" xlink:href="#md3184a7f32" y="50.297514"/>
      </g>
     </g>
     <g id="text_29">
      <!-- 20 -->
      <g transform="translate(257.207537 54.096732)scale(0.1 -0.1)">
       <use xlink:href="#DejaVuSans-32"/>
       <use x="63.623047" xlink:href="#DejaVuSans-30"/>
      </g>
     </g>
    </g>
    <g id="text_30">
     <!-- Angular Error (Degrees) -->
     <g transform="translate(251.127849 165.29375)rotate(-90)scale(0.1 -0.1)">
      <use xlink:href="#DejaVuSans-41"/>
      <use x="68.408203" xlink:href="#DejaVuSans-6e"/>
      <use x="131.787109" xlink:href="#DejaVuSans-67"/>
      <use x="195.263672" xlink:href="#DejaVuSans-75"/>
      <use x="258.642578" xlink:href="#DejaVuSans-6c"/>
      <use x="286.425781" xlink:href="#DejaVuSans-61"/>
      <use x="347.705078" xlink:href="#DejaVuSans-72"/>
      <use x="388.818359" xlink:href="#DejaVuSans-20"/>
      <use x="420.605469" xlink:href="#DejaVuSans-45"/>
      <use x="483.789062" xlink:href="#DejaVuSans-72"/>
      <use x="524.886719" xlink:href="#DejaVuSans-72"/>
      <use x="565.96875" xlink:href="#DejaVuSans-6f"/>
      <use x="627.150391" xlink:href="#DejaVuSans-72"/>
      <use x="668.263672" xlink:href="#DejaVuSans-20"/>
      <use x="700.050781" xlink:href="#DejaVuSans-28"/>
      <use x="739.064453" xlink:href="#DejaVuSans-44"/>
      <use x="816.066406" xlink:href="#DejaVuSans-65"/>
      <use x="877.589844" xlink:href="#DejaVuSans-67"/>
      <use x="941.066406" xlink:href="#DejaVuSans-72"/>
      <use x="982.148438" xlink:href="#DejaVuSans-65"/>
      <use x="1043.671875" xlink:href="#DejaVuSans-65"/>
      <use x="1105.195312" xlink:href="#DejaVuSans-73"/>
      <use x="1157.294922" xlink:href="#DejaVuSans-29"/>
     </g>
    </g>
   </g>
   <g id="patch_45">
    <path d="M 276.932537 188.638125 
L 276.932537 22.318125 
" style="fill:none;stroke:#000000;stroke-linecap:square;stroke-linejoin:miter;stroke-width:0.8;"/>
   </g>
   <g id="patch_46">
    <path d="M 473.873713 188.638125 
L 473.873713 22.318125 
" style="fill:none;stroke:#000000;stroke-linecap:square;stroke-linejoin:miter;stroke-width:0.8;"/>
   </g>
   <g id="patch_47">
    <path d="M 276.932537 188.638125 
L 473.873713 188.638125 
" style="fill:none;stroke:#000000;stroke-linecap:square;stroke-linejoin:miter;stroke-width:0.8;"/>
   </g>
   <g id="patch_48">
    <path d="M 276.932537 22.318125 
L 473.873713 22.318125 
" style="fill:none;stroke:#000000;stroke-linecap:square;stroke-linejoin:miter;stroke-width:0.8;"/>
   </g>
   <g id="text_31">
    <!-- Harmonic -->
    <defs>
     <path d="M 9.8125 72.90625 
L 19.671875 72.90625 
L 19.671875 43.015625 
L 55.515625 43.015625 
L 55.515625 72.90625 
L 65.375 72.90625 
L 65.375 0 
L 55.515625 0 
L 55.515625 34.71875 
L 19.671875 34.71875 
L 19.671875 0 
L 9.8125 0 
z
" id="DejaVuSans-48"/>
     <path d="M 48.78125 52.59375 
L 48.78125 44.1875 
Q 44.96875 46.296875 41.140625 47.34375 
Q 37.3125 48.390625 33.40625 48.390625 
Q 24.65625 48.390625 19.8125 42.84375 
Q 14.984375 37.3125 14.984375 27.296875 
Q 14.984375 17.28125 19.8125 11.734375 
Q 24.65625 6.203125 33.40625 6.203125 
Q 37.3125 6.203125 41.140625 7.25 
Q 44.96875 8.296875 48.78125 10.40625 
L 48.78125 2.09375 
Q 45.015625 0.34375 40.984375 -0.53125 
Q 36.96875 -1.421875 32.421875 -1.421875 
Q 20.0625 -1.421875 12.78125 6.34375 
Q 5.515625 14.109375 5.515625 27.296875 
Q 5.515625 40.671875 12.859375 48.328125 
Q 20.21875 56 33.015625 56 
Q 37.15625 56 41.109375 55.140625 
Q 45.0625 54.296875 48.78125 52.59375 
z
" id="DejaVuSans-63"/>
    </defs>
    <g transform="translate(346.464375 16.318125)scale(0.12 -0.12)">
     <use xlink:href="#DejaVuSans-48"/>
     <use x="75.195312" xlink:href="#DejaVuSans-61"/>
     <use x="136.474609" xlink:href="#DejaVuSans-72"/>
     <use x="177.572266" xlink:href="#DejaVuSans-6d"/>
     <use x="274.984375" xlink:href="#DejaVuSans-6f"/>
     <use x="336.166016" xlink:href="#DejaVuSans-6e"/>
     <use x="399.544922" xlink:href="#DejaVuSans-69"/>
     <use x="427.328125" xlink:href="#DejaVuSans-63"/>
    </g>
   </g>
   <g id="legend_2">
    <g id="patch_49">
     <path d="M 283.932537 89.030625 
L 356.432537 89.030625 
Q 358.432537 89.030625 358.432537 87.030625 
L 358.432537 29.318125 
Q 358.432537 27.318125 356.432537 27.318125 
L 283.932537 27.318125 
Q 281.932537 27.318125 281.932537 29.318125 
L 281.932537 87.030625 
Q 281.932537 89.030625 283.932537 89.030625 
z
" style="fill:#ffffff;opacity:0.8;stroke:#cccccc;stroke-linejoin:miter;"/>
    </g>
    <g id="patch_50">
     <path d="M 285.932537 38.916562 
L 305.932537 38.916562 
L 305.932537 31.916562 
L 285.932537 31.916562 
z
" style="fill:#1f77b4;"/>
    </g>
    <g id="text_32">
     <!-- TDA -->
     <g transform="translate(313.932537 38.916562)scale(0.1 -0.1)">
      <use xlink:href="#DejaVuSans-54"/>
      <use x="61.083984" xlink:href="#DejaVuSans-44"/>
      <use x="138.070312" xlink:href="#DejaVuSans-41"/>
     </g>
    </g>
    <g id="patch_51">
     <path d="M 285.932537 53.594687 
L 305.932537 53.594687 
L 305.932537 46.594687 
L 285.932537 46.594687 
z
" style="fill:#ff7f0e;"/>
    </g>
    <g id="text_33">
     <!-- $\kappa = 0.05$ -->
     <g transform="translate(313.932537 53.594687)scale(0.1 -0.1)">
      <use transform="translate(0 0.78125)" xlink:href="#DejaVuSans-Oblique-3ba"/>
      <use transform="translate(78.417969 0.78125)" xlink:href="#DejaVuSans-3d"/>
      <use transform="translate(181.689453 0.78125)" xlink:href="#DejaVuSans-30"/>
      <use transform="translate(245.3125 0.78125)" xlink:href="#DejaVuSans-2e"/>
      <use transform="translate(277.099609 0.78125)" xlink:href="#DejaVuSans-30"/>
      <use transform="translate(340.722656 0.78125)" xlink:href="#DejaVuSans-35"/>
     </g>
    </g>
    <g id="patch_52">
     <path d="M 285.932537 68.272812 
L 305.932537 68.272812 
L 305.932537 61.272812 
L 285.932537 61.272812 
z
" style="fill:#2ca02c;"/>
    </g>
    <g id="text_34">
     <!-- $\kappa = 0.1$ -->
     <g transform="translate(313.932537 68.272812)scale(0.1 -0.1)">
      <use transform="translate(0 0.78125)" xlink:href="#DejaVuSans-Oblique-3ba"/>
      <use transform="translate(78.417969 0.78125)" xlink:href="#DejaVuSans-3d"/>
      <use transform="translate(181.689453 0.78125)" xlink:href="#DejaVuSans-30"/>
      <use transform="translate(245.3125 0.78125)" xlink:href="#DejaVuSans-2e"/>
      <use transform="translate(277.099609 0.78125)" xlink:href="#DejaVuSans-31"/>
     </g>
    </g>
    <g id="patch_53">
     <path d="M 285.932537 82.950938 
L 305.932537 82.950938 
L 305.932537 75.950938 
L 285.932537 75.950938 
z
" style="fill:#d62728;"/>
    </g>
    <g id="text_35">
     <!-- $\kappa = 0.15$ -->
     <g transform="translate(313.932537 82.950938)scale(0.1 -0.1)">
      <use transform="translate(0 0.78125)" xlink:href="#DejaVuSans-Oblique-3ba"/>
      <use transform="translate(78.417969 0.78125)" xlink:href="#DejaVuSans-3d"/>
      <use transform="translate(181.689453 0.78125)" xlink:href="#DejaVuSans-30"/>
      <use transform="translate(245.3125 0.78125)" xlink:href="#DejaVuSans-2e"/>
      <use transform="translate(277.099609 0.78125)" xlink:href="#DejaVuSans-31"/>
      <use transform="translate(340.722656 0.78125)" xlink:href="#DejaVuSans-35"/>
     </g>
    </g>
   </g>
  </g>
  <g id="axes_3">
   <g id="patch_54">
    <path d="M 513.261949 188.638125 
L 710.203125 188.638125 
L 710.203125 22.318125 
L 513.261949 22.318125 
z
" style="fill:#ffffff;"/>
   </g>
   <g id="patch_55">
    <path clip-path="url(#p7731b02272)" d="M 522.21382 188.638125 
L 531.636843 188.638125 
L 531.636843 187.390335 
L 522.21382 187.390335 
z
" style="fill:#1f77b4;"/>
   </g>
   <g id="patch_56">
    <path clip-path="url(#p7731b02272)" d="M 569.328934 188.638125 
L 578.751957 188.638125 
L 578.751957 183.646965 
L 569.328934 183.646965 
z
" style="fill:#1f77b4;"/>
   </g>
   <g id="patch_57">
    <path clip-path="url(#p7731b02272)" d="M 616.444048 188.638125 
L 625.867071 188.638125 
L 625.867071 176.264208 
L 616.444048 176.264208 
z
" style="fill:#1f77b4;"/>
   </g>
   <g id="patch_58">
    <path clip-path="url(#p7731b02272)" d="M 663.559162 188.638125 
L 672.982185 188.638125 
L 672.982185 30.238125 
L 663.559162 30.238125 
z
" style="fill:#1f77b4;"/>
   </g>
   <g id="patch_59">
    <path clip-path="url(#p7731b02272)" d="M 531.636843 188.638125 
L 541.059866 188.638125 
L 541.059866 186.880821 
L 531.636843 186.880821 
z
" style="fill:#ff7f0e;"/>
   </g>
   <g id="patch_60">
    <path clip-path="url(#p7731b02272)" d="M 578.751957 188.638125 
L 588.17498 188.638125 
L 588.17498 181.879263 
L 578.751957 181.879263 
z
" style="fill:#ff7f0e;"/>
   </g>
   <g id="patch_61">
    <path clip-path="url(#p7731b02272)" d="M 625.867071 188.638125 
L 635.290094 188.638125 
L 635.290094 172.243552 
L 625.867071 172.243552 
z
" style="fill:#ff7f0e;"/>
   </g>
   <g id="patch_62">
    <path clip-path="url(#p7731b02272)" d="M 672.982185 188.638125 
L 682.405208 188.638125 
L 682.405208 78.070072 
L 672.982185 78.070072 
z
" style="fill:#ff7f0e;"/>
   </g>
   <g id="patch_63">
    <path clip-path="url(#p7731b02272)" d="M 541.059866 188.638125 
L 550.482889 188.638125 
L 550.482889 186.880821 
L 541.059866 186.880821 
z
" style="fill:#2ca02c;"/>
   </g>
   <g id="patch_64">
    <path clip-path="url(#p7731b02272)" d="M 588.17498 188.638125 
L 597.598003 188.638125 
L 597.598003 183.924252 
L 588.17498 183.924252 
z
" style="fill:#2ca02c;"/>
   </g>
   <g id="patch_65">
    <path clip-path="url(#p7731b02272)" d="M 635.290094 188.638125 
L 644.713117 188.638125 
L 644.713117 173.907272 
L 635.290094 173.907272 
z
" style="fill:#2ca02c;"/>
   </g>
   <g id="patch_66">
    <path clip-path="url(#p7731b02272)" d="M 682.405208 188.638125 
L 691.828231 188.638125 
L 691.828231 109.264821 
L 682.405208 109.264821 
z
" style="fill:#2ca02c;"/>
   </g>
   <g id="patch_67">
    <path clip-path="url(#p7731b02272)" d="M 550.482889 188.638125 
L 559.905911 188.638125 
L 559.905911 187.154641 
L 550.482889 187.154641 
z
" style="fill:#d62728;"/>
   </g>
   <g id="patch_68">
    <path clip-path="url(#p7731b02272)" d="M 597.598003 188.638125 
L 607.021025 188.638125 
L 607.021025 183.924252 
L 597.598003 183.924252 
z
" style="fill:#d62728;"/>
   </g>
   <g id="patch_69">
    <path clip-path="url(#p7731b02272)" d="M 644.713117 188.638125 
L 654.136139 188.638125 
L 654.136139 173.733967 
L 644.713117 173.733967 
z
" style="fill:#d62728;"/>
   </g>
   <g id="patch_70">
    <path clip-path="url(#p7731b02272)" d="M 691.828231 188.638125 
L 701.251253 188.638125 
L 701.251253 122.089329 
L 691.828231 122.089329 
z
" style="fill:#d62728;"/>
   </g>
   <g id="matplotlib.axis_5">
    <g id="xtick_9">
     <g id="line2d_22">
      <g>
       <use style="stroke:#000000;stroke-width:0.8;" x="541.059866" xlink:href="#m3f5a8f6b1d" y="188.638125"/>
      </g>
     </g>
     <g id="text_36">
      <!-- 0 -->
      <g transform="translate(537.878616 203.236563)scale(0.1 -0.1)">
       <use xlink:href="#DejaVuSans-30"/>
      </g>
     </g>
    </g>
    <g id="xtick_10">
     <g id="line2d_23">
      <g>
       <use style="stroke:#000000;stroke-width:0.8;" x="588.17498" xlink:href="#m3f5a8f6b1d" y="188.638125"/>
      </g>
     </g>
     <g id="text_37">
      <!-- $20 \times 20$ -->
      <g transform="translate(569.27498 203.236563)scale(0.1 -0.1)">
       <use transform="translate(0 0.78125)" xlink:href="#DejaVuSans-32"/>
       <use transform="translate(63.623047 0.78125)" xlink:href="#DejaVuSans-30"/>
       <use transform="translate(146.728516 0.78125)" xlink:href="#DejaVuSans-d7"/>
       <use transform="translate(250 0.78125)" xlink:href="#DejaVuSans-32"/>
       <use transform="translate(313.623047 0.78125)" xlink:href="#DejaVuSans-30"/>
      </g>
     </g>
    </g>
    <g id="xtick_11">
     <g id="line2d_24">
      <g>
       <use style="stroke:#000000;stroke-width:0.8;" x="635.290094" xlink:href="#m3f5a8f6b1d" y="188.638125"/>
      </g>
     </g>
     <g id="text_38">
      <!-- $40 \times 40$ -->
      <g transform="translate(616.390094 203.236563)scale(0.1 -0.1)">
       <use transform="translate(0 0.78125)" xlink:href="#DejaVuSans-34"/>
       <use transform="translate(63.623047 0.78125)" xlink:href="#DejaVuSans-30"/>
       <use transform="translate(146.728516 0.78125)" xlink:href="#DejaVuSans-d7"/>
       <use transform="translate(250 0.78125)" xlink:href="#DejaVuSans-34"/>
       <use transform="translate(313.623047 0.78125)" xlink:href="#DejaVuSans-30"/>
      </g>
     </g>
    </g>
    <g id="xtick_12">
     <g id="line2d_25">
      <g>
       <use style="stroke:#000000;stroke-width:0.8;" x="682.405208" xlink:href="#m3f5a8f6b1d" y="188.638125"/>
      </g>
     </g>
     <g id="text_39">
      <!-- $80 \times 80$ -->
      <g transform="translate(663.505208 203.236563)scale(0.1 -0.1)">
       <use transform="translate(0 0.78125)" xlink:href="#DejaVuSans-38"/>
       <use transform="translate(63.623047 0.78125)" xlink:href="#DejaVuSans-30"/>
       <use transform="translate(146.728516 0.78125)" xlink:href="#DejaVuSans-d7"/>
       <use transform="translate(250 0.78125)" xlink:href="#DejaVuSans-38"/>
       <use transform="translate(313.623047 0.78125)" xlink:href="#DejaVuSans-30"/>
      </g>
     </g>
    </g>
    <g id="text_40">
     <!-- Blur Width -->
     <g transform="translate(585.465349 216.914688)scale(0.1 -0.1)">
      <use xlink:href="#DejaVuSans-42"/>
      <use x="68.603516" xlink:href="#DejaVuSans-6c"/>
      <use x="96.386719" xlink:href="#DejaVuSans-75"/>
      <use x="159.765625" xlink:href="#DejaVuSans-72"/>
      <use x="200.878906" xlink:href="#DejaVuSans-20"/>
      <use x="232.666016" xlink:href="#DejaVuSans-57"/>
      <use x="331.511719" xlink:href="#DejaVuSans-69"/>
      <use x="359.294922" xlink:href="#DejaVuSans-64"/>
      <use x="422.771484" xlink:href="#DejaVuSans-74"/>
      <use x="461.980469" xlink:href="#DejaVuSans-68"/>
     </g>
    </g>
   </g>
   <g id="matplotlib.axis_6">
    <g id="ytick_14">
     <g id="line2d_26">
      <g>
       <use style="stroke:#000000;stroke-width:0.8;" x="513.261949" xlink:href="#md3184a7f32" y="188.638125"/>
      </g>
     </g>
     <g id="text_41">
      <!-- 0 -->
      <g transform="translate(499.899449 192.437344)scale(0.1 -0.1)">
       <use xlink:href="#DejaVuSans-30"/>
      </g>
     </g>
    </g>
    <g id="ytick_15">
     <g id="line2d_27">
      <g>
       <use style="stroke:#000000;stroke-width:0.8;" x="513.261949" xlink:href="#md3184a7f32" y="153.977293"/>
      </g>
     </g>
     <g id="text_42">
      <!-- 10 -->
      <g transform="translate(493.536949 157.776512)scale(0.1 -0.1)">
       <use xlink:href="#DejaVuSans-31"/>
       <use x="63.623047" xlink:href="#DejaVuSans-30"/>
      </g>
     </g>
    </g>
    <g id="ytick_16">
     <g id="line2d_28">
      <g>
       <use style="stroke:#000000;stroke-width:0.8;" x="513.261949" xlink:href="#md3184a7f32" y="119.316462"/>
      </g>
     </g>
     <g id="text_43">
      <!-- 20 -->
      <g transform="translate(493.536949 123.115681)scale(0.1 -0.1)">
       <use xlink:href="#DejaVuSans-32"/>
       <use x="63.623047" xlink:href="#DejaVuSans-30"/>
      </g>
     </g>
    </g>
    <g id="ytick_17">
     <g id="line2d_29">
      <g>
       <use style="stroke:#000000;stroke-width:0.8;" x="513.261949" xlink:href="#md3184a7f32" y="84.65563"/>
      </g>
     </g>
     <g id="text_44">
      <!-- 30 -->
      <defs>
       <path d="M 40.578125 39.3125 
Q 47.65625 37.796875 51.625 33 
Q 55.609375 28.21875 55.609375 21.1875 
Q 55.609375 10.40625 48.1875 4.484375 
Q 40.765625 -1.421875 27.09375 -1.421875 
Q 22.515625 -1.421875 17.65625 -0.515625 
Q 12.796875 0.390625 7.625 2.203125 
L 7.625 11.71875 
Q 11.71875 9.328125 16.59375 8.109375 
Q 21.484375 6.890625 26.8125 6.890625 
Q 36.078125 6.890625 40.9375 10.546875 
Q 45.796875 14.203125 45.796875 21.1875 
Q 45.796875 27.640625 41.28125 31.265625 
Q 36.765625 34.90625 28.71875 34.90625 
L 20.21875 34.90625 
L 20.21875 43.015625 
L 29.109375 43.015625 
Q 36.375 43.015625 40.234375 45.921875 
Q 44.09375 48.828125 44.09375 54.296875 
Q 44.09375 59.90625 40.109375 62.90625 
Q 36.140625 65.921875 28.71875 65.921875 
Q 24.65625 65.921875 20.015625 65.03125 
Q 15.375 64.15625 9.8125 62.3125 
L 9.8125 71.09375 
Q 15.4375 72.65625 20.34375 73.4375 
Q 25.25 74.21875 29.59375 74.21875 
Q 40.828125 74.21875 47.359375 69.109375 
Q 53.90625 64.015625 53.90625 55.328125 
Q 53.90625 49.265625 50.4375 45.09375 
Q 46.96875 40.921875 40.578125 39.3125 
z
" id="DejaVuSans-33"/>
      </defs>
      <g transform="translate(493.536949 88.454849)scale(0.1 -0.1)">
       <use xlink:href="#DejaVuSans-33"/>
       <use x="63.623047" xlink:href="#DejaVuSans-30"/>
      </g>
     </g>
    </g>
    <g id="ytick_18">
     <g id="line2d_30">
      <g>
       <use style="stroke:#000000;stroke-width:0.8;" x="513.261949" xlink:href="#md3184a7f32" y="49.994799"/>
      </g>
     </g>
     <g id="text_45">
      <!-- 40 -->
      <g transform="translate(493.536949 53.794018)scale(0.1 -0.1)">
       <use xlink:href="#DejaVuSans-34"/>
       <use x="63.623047" xlink:href="#DejaVuSans-30"/>
      </g>
     </g>
    </g>
    <g id="text_46">
     <!-- Angular Error (Degrees) -->
     <g transform="translate(487.457261 165.29375)rotate(-90)scale(0.1 -0.1)">
      <use xlink:href="#DejaVuSans-41"/>
      <use x="68.408203" xlink:href="#DejaVuSans-6e"/>
      <use x="131.787109" xlink:href="#DejaVuSans-67"/>
      <use x="195.263672" xlink:href="#DejaVuSans-75"/>
      <use x="258.642578" xlink:href="#DejaVuSans-6c"/>
      <use x="286.425781" xlink:href="#DejaVuSans-61"/>
      <use x="347.705078" xlink:href="#DejaVuSans-72"/>
      <use x="388.818359" xlink:href="#DejaVuSans-20"/>
      <use x="420.605469" xlink:href="#DejaVuSans-45"/>
      <use x="483.789062" xlink:href="#DejaVuSans-72"/>
      <use x="524.886719" xlink:href="#DejaVuSans-72"/>
      <use x="565.96875" xlink:href="#DejaVuSans-6f"/>
      <use x="627.150391" xlink:href="#DejaVuSans-72"/>
      <use x="668.263672" xlink:href="#DejaVuSans-20"/>
      <use x="700.050781" xlink:href="#DejaVuSans-28"/>
      <use x="739.064453" xlink:href="#DejaVuSans-44"/>
      <use x="816.066406" xlink:href="#DejaVuSans-65"/>
      <use x="877.589844" xlink:href="#DejaVuSans-67"/>
      <use x="941.066406" xlink:href="#DejaVuSans-72"/>
      <use x="982.148438" xlink:href="#DejaVuSans-65"/>
      <use x="1043.671875" xlink:href="#DejaVuSans-65"/>
      <use x="1105.195312" xlink:href="#DejaVuSans-73"/>
      <use x="1157.294922" xlink:href="#DejaVuSans-29"/>
     </g>
    </g>
   </g>
   <g id="patch_71">
    <path d="M 513.261949 188.638125 
L 513.261949 22.318125 
" style="fill:none;stroke:#000000;stroke-linecap:square;stroke-linejoin:miter;stroke-width:0.8;"/>
   </g>
   <g id="patch_72">
    <path d="M 710.203125 188.638125 
L 710.203125 22.318125 
" style="fill:none;stroke:#000000;stroke-linecap:square;stroke-linejoin:miter;stroke-width:0.8;"/>
   </g>
   <g id="patch_73">
    <path d="M 513.261949 188.638125 
L 710.203125 188.638125 
" style="fill:none;stroke:#000000;stroke-linecap:square;stroke-linejoin:miter;stroke-width:0.8;"/>
   </g>
   <g id="patch_74">
    <path d="M 513.261949 22.318125 
L 710.203125 22.318125 
" style="fill:none;stroke:#000000;stroke-linecap:square;stroke-linejoin:miter;stroke-width:0.8;"/>
   </g>
   <g id="text_47">
    <!-- Crowd -->
    <defs>
     <path d="M 64.40625 67.28125 
L 64.40625 56.890625 
Q 59.421875 61.53125 53.78125 63.8125 
Q 48.140625 66.109375 41.796875 66.109375 
Q 29.296875 66.109375 22.65625 58.46875 
Q 16.015625 50.828125 16.015625 36.375 
Q 16.015625 21.96875 22.65625 14.328125 
Q 29.296875 6.6875 41.796875 6.6875 
Q 48.140625 6.6875 53.78125 8.984375 
Q 59.421875 11.28125 64.40625 15.921875 
L 64.40625 5.609375 
Q 59.234375 2.09375 53.4375 0.328125 
Q 47.65625 -1.421875 41.21875 -1.421875 
Q 24.65625 -1.421875 15.125 8.703125 
Q 5.609375 18.84375 5.609375 36.375 
Q 5.609375 53.953125 15.125 64.078125 
Q 24.65625 74.21875 41.21875 74.21875 
Q 47.75 74.21875 53.53125 72.484375 
Q 59.328125 70.75 64.40625 67.28125 
z
" id="DejaVuSans-43"/>
     <path d="M 4.203125 54.6875 
L 13.1875 54.6875 
L 24.421875 12.015625 
L 35.59375 54.6875 
L 46.1875 54.6875 
L 57.421875 12.015625 
L 68.609375 54.6875 
L 77.59375 54.6875 
L 63.28125 0 
L 52.6875 0 
L 40.921875 44.828125 
L 29.109375 0 
L 18.5 0 
z
" id="DejaVuSans-77"/>
    </defs>
    <g transform="translate(592.690974 16.318125)scale(0.12 -0.12)">
     <use xlink:href="#DejaVuSans-43"/>
     <use x="69.824219" xlink:href="#DejaVuSans-72"/>
     <use x="110.90625" xlink:href="#DejaVuSans-6f"/>
     <use x="172.087891" xlink:href="#DejaVuSans-77"/>
     <use x="253.875" xlink:href="#DejaVuSans-64"/>
    </g>
   </g>
   <g id="legend_3">
    <g id="patch_75">
     <path d="M 520.261949 89.030625 
L 592.761949 89.030625 
Q 594.761949 89.030625 594.761949 87.030625 
L 594.761949 29.318125 
Q 594.761949 27.318125 592.761949 27.318125 
L 520.261949 27.318125 
Q 518.261949 27.318125 518.261949 29.318125 
L 518.261949 87.030625 
Q 518.261949 89.030625 520.261949 89.030625 
z
" style="fill:#ffffff;opacity:0.8;stroke:#cccccc;stroke-linejoin:miter;"/>
    </g>
    <g id="patch_76">
     <path d="M 522.261949 38.916562 
L 542.261949 38.916562 
L 542.261949 31.916562 
L 522.261949 31.916562 
z
" style="fill:#1f77b4;"/>
    </g>
    <g id="text_48">
     <!-- TDA -->
     <g transform="translate(550.261949 38.916562)scale(0.1 -0.1)">
      <use xlink:href="#DejaVuSans-54"/>
      <use x="61.083984" xlink:href="#DejaVuSans-44"/>
      <use x="138.070312" xlink:href="#DejaVuSans-41"/>
     </g>
    </g>
    <g id="patch_77">
     <path d="M 522.261949 53.594687 
L 542.261949 53.594687 
L 542.261949 46.594687 
L 522.261949 46.594687 
z
" style="fill:#ff7f0e;"/>
    </g>
    <g id="text_49">
     <!-- $\kappa = 0.05$ -->
     <g transform="translate(550.261949 53.594687)scale(0.1 -0.1)">
      <use transform="translate(0 0.78125)" xlink:href="#DejaVuSans-Oblique-3ba"/>
      <use transform="translate(78.417969 0.78125)" xlink:href="#DejaVuSans-3d"/>
      <use transform="translate(181.689453 0.78125)" xlink:href="#DejaVuSans-30"/>
      <use transform="translate(245.3125 0.78125)" xlink:href="#DejaVuSans-2e"/>
      <use transform="translate(277.099609 0.78125)" xlink:href="#DejaVuSans-30"/>
      <use transform="translate(340.722656 0.78125)" xlink:href="#DejaVuSans-35"/>
     </g>
    </g>
    <g id="patch_78">
     <path d="M 522.261949 68.272812 
L 542.261949 68.272812 
L 542.261949 61.272812 
L 522.261949 61.272812 
z
" style="fill:#2ca02c;"/>
    </g>
    <g id="text_50">
     <!-- $\kappa = 0.1$ -->
     <g transform="translate(550.261949 68.272812)scale(0.1 -0.1)">
      <use transform="translate(0 0.78125)" xlink:href="#DejaVuSans-Oblique-3ba"/>
      <use transform="translate(78.417969 0.78125)" xlink:href="#DejaVuSans-3d"/>
      <use transform="translate(181.689453 0.78125)" xlink:href="#DejaVuSans-30"/>
      <use transform="translate(245.3125 0.78125)" xlink:href="#DejaVuSans-2e"/>
      <use transform="translate(277.099609 0.78125)" xlink:href="#DejaVuSans-31"/>
     </g>
    </g>
    <g id="patch_79">
     <path d="M 522.261949 82.950938 
L 542.261949 82.950938 
L 542.261949 75.950938 
L 522.261949 75.950938 
z
" style="fill:#d62728;"/>
    </g>
    <g id="text_51">
     <!-- $\kappa = 0.15$ -->
     <g transform="translate(550.261949 82.950938)scale(0.1 -0.1)">
      <use transform="translate(0 0.78125)" xlink:href="#DejaVuSans-Oblique-3ba"/>
      <use transform="translate(78.417969 0.78125)" xlink:href="#DejaVuSans-3d"/>
      <use transform="translate(181.689453 0.78125)" xlink:href="#DejaVuSans-30"/>
      <use transform="translate(245.3125 0.78125)" xlink:href="#DejaVuSans-2e"/>
      <use transform="translate(277.099609 0.78125)" xlink:href="#DejaVuSans-31"/>
      <use transform="translate(340.722656 0.78125)" xlink:href="#DejaVuSans-35"/>
     </g>
    </g>
   </g>
  </g>
 </g>
 <defs>
  <clipPath id="p4720aefc18">
   <rect height="166.32" width="196.941176" x="40.603125" y="22.318125"/>
  </clipPath>
  <clipPath id="p4d842b0df5">
   <rect height="166.32" width="196.941176" x="276.932537" y="22.318125"/>
  </clipPath>
  <clipPath id="p7731b02272">
   <rect height="166.32" width="196.941176" x="513.261949" y="22.318125"/>
  </clipPath>
 </defs>
</svg>
